<?xml version="1.0" standalone="no"?>
<!DOCTYPE svg PUBLIC "-//W3C//DTD SVG 1.1//EN" "http://www.w3.org/Graphics/SVG/1.1/DTD/svg11.dtd">
<svg width="800" height="600" version="1.1" xmlns="http://www.w3.org/2000/svg">
<rect width="800" height="600" x="0" y="0" style="fill:rgb(238,238,238);stroke:none"/>
<rect width="800" height="600" x="0" y="0" style="fill:rgb(255,255,255);stroke:none"/>
<text x="2" y="566" fill="rgb(0,0,0)" font-family="Arial" font-size="12">0</text>
<text x="2" y="513" fill="rgb(0,0,0)" font-family="Arial" font-size="12">500000</text>
<text x="2" y="459" fill="rgb(0,0,0)" font-family="Arial" font-size="12">1000000</text>
<text x="2" y="405" fill="rgb(0,0,0)" font-family="Arial" font-size="12">1500000</text>
<text x="2" y="351" fill="rgb(0,0,0)" font-family="Arial" font-size="12">2000000</text>
<text x="2" y="297" fill="rgb(0,0,0)" font-family="Arial" font-size="12">2500000</text>
<text x="2" y="243" fill="rgb(0,0,0)" font-family="Arial" font-size="12">3000000</text>
<text x="2" y="189" fill="rgb(0,0,0)" font-family="Arial" font-size="12">3500000</text>
<text x="2" y="136" fill="rgb(0,0,0)" font-family="Arial" font-size="12">4000000</text>
<text x="2" y="82" fill="rgb(0,0,0)" font-family="Arial" font-size="12">4500000</text>
<text x="262" y="30" fill="rgb(0,0,0)" font-family="Arial" font-size="12">Distribution of sequence lengths over all sequences</text>
<line x1="61" y1="560" x2="790" y2="560" stroke="rgb(0,0,0)" stroke-width="1"/>
<line x1="61" y1="560" x2="61" y2="40" stroke="rgb(0,0,0)" stroke-width="1"/>
<text x="330" y="595" fill="rgb(0,0,0)" font-family="Arial" font-size="12">Sequence Length (bp)</text>
<text x="170" y="575" fill="rgb(0,0,0)" font-family="Arial" font-size="12">100</text>
<rect width="243" height="520" x="304" y="40" style="fill:rgb(230,230,230);stroke:none"/>
<text x="413" y="575" fill="rgb(0,0,0)" font-family="Arial" font-size="12">101</text>
<text x="656" y="575" fill="rgb(0,0,0)" font-family="Arial" font-size="12">102</text>
<line x1="61" y1="560" x2="790" y2="560" stroke="rgb(180,180,180)" stroke-width="1"/>
<line x1="61" y1="507" x2="790" y2="507" stroke="rgb(180,180,180)" stroke-width="1"/>
<line x1="61" y1="453" x2="790" y2="453" stroke="rgb(180,180,180)" stroke-width="1"/>
<line x1="61" y1="399" x2="790" y2="399" stroke="rgb(180,180,180)" stroke-width="1"/>
<line x1="61" y1="345" x2="790" y2="345" stroke="rgb(180,180,180)" stroke-width="1"/>
<line x1="61" y1="291" x2="790" y2="291" stroke="rgb(180,180,180)" stroke-width="1"/>
<line x1="61" y1="237" x2="790" y2="237" stroke="rgb(180,180,180)" stroke-width="1"/>
<line x1="61" y1="183" x2="790" y2="183" stroke="rgb(180,180,180)" stroke-width="1"/>
<line x1="61" y1="130" x2="790" y2="130" stroke="rgb(180,180,180)" stroke-width="1"/>
<line x1="61" y1="76" x2="790" y2="76" stroke="rgb(180,180,180)" stroke-width="1"/>
<line x1="182" y1="560" x2="425" y2="40" stroke="rgb(136,34,85)" stroke-width="1"/>
<line x1="425" y1="40" x2="668" y2="560" stroke="rgb(136,34,85)" stroke-width="1"/>
<rect width="130" height="23" x="660" y="40" style="fill:rgb(255,255,255);stroke:none"/>
<rect width="130" height="23" x="660" y="40" rx="0" ry="0" style="fill:none;stroke-width:1;stroke:rgb(192,192,192)"/>
<text x="663" y="55" fill="rgb(136,34,85)" font-family="Arial" font-size="12" font-weight="bold">Sequence Length</text>
</svg>
